# xmcd
#
# Track frame offsets:
#	150
#	17263
#	35167
#	50182
#	69225
#	89892
#	109780
#	129054
#	147565
#	169616
#	189455
#	210126
#	231145
#	247715
#	266318
#
# Disc length: 3800 seconds
#
# Revision: 2
# Processed by: cddbd v1.5.2PL0 Copyright (c) Steve Scherf et al.
# Submitted via: EasyCDDAExtractor 15.3.0.1
#
DISCID=c40ed60f
DTITLE=Lissette - Eternamente Lissette
DYEAR=2006
DGENRE=Latin
TTITLE0=Mujer
TTITLE1=Señora Melancolia
TTITLE2=A Pesar De Todo
TTITLE3=Como Decirte
TTITLE4=Karma
TTITLE5=Tratare
TTITLE6=La Cuerda Justa
TTITLE7=Todo El Mundo Tiene Miedo De Amarse
TTITLE8=Tu Caso Soy Yo
TTITLE9=Ni Su Hombre Ni Su Amante
TTITLE10=Trampas De Luz
TTITLE11=Un Poco Mas
TTITLE12=Gente
TTITLE13=No Te Quiero Mas
TTITLE14=Clasificados
EXTD=
EXTT0=
EXTT1=
EXTT2=
EXTT3=
EXTT4=
EXTT5=
EXTT6=
EXTT7=
EXTT8=
EXTT9=
EXTT10=
EXTT11=
EXTT12=
EXTT13=
EXTT14=
PLAYORDER=
